HIERARCHY
ROOT pelvis
{
  OFFSET 0 100 0
  CHANNELS 6 Xposition Yposition Zposition Zrotation Xrotation Yrotation
  JOINT pelvis_right_femur
  {
    OFFSET -10.78128 -3.44521 -0.5502486
    CHANNELS 3 Zrotation Xrotation Yrotation
    JOINT right_femur_tibia
    {
      OFFSET -0.8047443 -44.0398 -0.1307829
      CHANNELS 3 Zrotation Xrotation Yrotation
      JOINT right_tibia_foot
      {
        OFFSET 3.006224 -47.83518 -5
        CHANNELS 3 Zrotation Xrotation Yrotation
        End Site
        {
          OFFSET 0 -5 15
        }
      }
    }
  }
  JOINT pelvis_left_femur
  {
    OFFSET 10.78128 -3.44521 -0.5502486
    CHANNELS 3 Zrotation Xrotation Yrotation
    JOINT left_femur_tibia
    {
      OFFSET 0.8047443 -44.0398 -0.1307829
      CHANNELS 3 Zrotation Xrotation Yrotation
      JOINT left_tibia_foot
      {
        OFFSET -4.370144 -48.10324 -4.275266
        CHANNELS 3 Zrotation Xrotation Yrotation
        End Site
        {
          OFFSET 0 -5 15
        }
      }
    }
  }
  JOINT pelvis_spine1
  {
    OFFSET 0 6.468898 -3.129235
    CHANNELS 3 Zrotation Xrotation Yrotation
    JOINT spine1
    {
      OFFSET 0 23.15396 4.99043
      CHANNELS 3 Zrotation Xrotation Yrotation
      JOINT spine2
      {
        OFFSET 0 20.79997 -5.064912
        CHANNELS 3 Zrotation Xrotation Yrotation
        JOINT neck
        {
          OFFSET 0 14.38658 9.616178
          CHANNELS 3 Zrotation Xrotation Yrotation
          End Site
          {
            OFFSET 0 20 0
          }
        }
      }
      JOINT right_manubrium
      {
        OFFSET -5.722621 16.35077 3.967754
        CHANNELS 3 Zrotation Xrotation Yrotation
        JOINT right_clavicle
        {
          OFFSET -13.16364 1.694482 -4.693211
          CHANNELS 3 Zrotation Xrotation Yrotation
          JOINT right_humerus
          {
            OFFSET -28.5034 -0.3100689 -2.792744
            CHANNELS 3 Zrotation Xrotation Yrotation
            JOINT right_radius
            {
              OFFSET -25.15693 0.02248979 -1.271978
              CHANNELS 3 Zrotation Xrotation Yrotation
              End Site
              {
                OFFSET -15 0 0
              }
            }
          }
        }
      }
      JOINT left_manubrium
      {
        OFFSET 5.722621 16.35077 3.967754
        CHANNELS 3 Zrotation Xrotation Yrotation
        JOINT left_clavicle
        {
          OFFSET 13.16364 1.694482 -4.693211
          CHANNELS 3 Zrotation Xrotation Yrotation
          JOINT left_humerus
          {
            OFFSET 29.39168 -1.063119 -2.237045
            CHANNELS 3 Zrotation Xrotation Yrotation
            JOINT left_radius
            {
              OFFSET 24.59957 -0.9528479 0.9047498
              CHANNELS 3 Zrotation Xrotation Yrotation
              End Site
              {
                OFFSET 15 -0 -0
              }
            }
          }
        }
      }
    }
  }
}
MOTION
Frames: 7
Frame Time: 0.0416666666667
0 103.5113 0 1.972457 -0.3339199 0.02909816 4.652141 -15.10697 7.580324 -0 36.96873 -0 -4.47828 -18.76521 -0.660257 -8.508658 10.40313 -23.18579 -0 4.723049 -0 17.68737 -12.32042 29.13385 -2.305228 -2.479395 5.54151 2.239398 9.904942 -7.262325 1.22905 21.0982 6.823883 3.722395 -24.97664 8.916083 5.927144 -19.36726 11.3087 84.81783 35.65061 -17.6645 -0 0 16.33055 -8.868986 9.09419 4.67014 6.947287 -21.34017 -0.7448889 -93.35334 22.30481 21.8363 0 0 -14.18178 12.6433 15.28575 -0.5097687
0.3761937 103.9872 1.524187 1.688889 0.6022414 -0.01359746 5.486242 -17.26003 7.914924 -0 36.34823 -0 -4.826245 -17.02346 -0.2645461 -8.678201 10.20139 -22.88906 -0 5.594924 -0 19.21682 -12.49289 30.00695 -2.109815 -2.403818 5.102348 2.495975 9.85468 -7.678567 1.252523 20.66338 7.102046 3.946241 -25.59331 9.139028 5.778418 -18.91568 11.28977 85.79393 35.38313 -19.11845 -0 0 15.3855 -8.897602 9.443182 4.250811 7.313809 -21.60907 -0.8148652 -92.76353 21.75655 20.61515 0 0 -15.43247 12.89449 15.08409 -1.305104
0.6459891 104.0653 3.408995 0.9312167 1.009737 -0.07645116 5.625132 -21.36001 7.920637 -0 32.57358 -0 -5.261628 -13.92802 -1.33748 -7.797061 11.26078 -22.02068 -0 6.341895 -0 14.43477 -16.49813 28.39547 -2.192225 -2.387342 5.176844 2.485385 9.839339 -7.577823 1.238708 20.80668 6.966726 3.819837 -25.40899 9.002627 5.852529 -18.9941 11.3192 85.41995 35.3331 -18.65086 -0 0 15.52986 -8.918489 9.326938 4.58651 7.073945 -21.42952 -0.8256878 -92.90083 22.16795 20.94732 0 0 -15.14355 12.35906 15.06031 -0.4825787
0.8643574 104.0259 5.31518 0.3415509 1.548431 -0.1624614 6.136166 -23.66567 8.842332 -0 31.94291 -0 -5.288352 -13.27061 -2.150152 -7.253603 11.51924 -22.08892 -0 6.502926 -0 11.80621 -18.54361 27.74161 -2.18311 -2.339352 5.048182 2.592193 9.792023 -7.668345 1.235817 20.74581 6.964916 3.801251 -25.51442 8.975014 5.850575 -18.86389 11.33617 85.49782 35.16706 -18.85237 -0 0 15.24228 -8.953452 9.372263 4.720642 7.014024 -21.3786 -0.8635197 -92.76372 22.31253 20.70899 0 0 -15.44283 11.96337 14.94691 -0.06088758
1.057021 103.8147 7.543816 -0.2257363 2.461648 -0.1839328 6.727169 -27.2632 8.622236 -0 28.63306 -0 -5.763131 -10.78759 -2.247352 -6.814772 11.69958 -21.11194 -0 6.942965 -0 9.956923 -20.52519 26.16868 -2.15387 -2.281583 4.813044 2.783646 9.676106 -7.8316 1.241934 20.63185 6.994726 3.784847 -25.77525 9.003956 5.841121 -18.63295 11.34913 85.69468 34.95302 -19.28135 -0 0 14.75645 -8.907328 9.456382 4.821146 6.964977 -21.30673 -0.8951245 -92.57788 22.52954 20.31365 0 0 -15.93031 11.46356 14.85483 0.4228915
1.238342 103.456 10.10704 -0.6890276 3.315302 -0.1097098 7.260968 -30.31098 8.319052 -0 25.44412 -0 -6.215717 -8.645974 -2.192177 -6.444498 11.87845 -20.22007 -0 7.415915 -0 8.462922 -21.99121 24.55265 -2.10672 -2.216355 4.519549 3.012372 9.536312 -8.041557 1.246681 20.46885 7.054197 3.787886 -26.10276 9.051389 5.816583 -18.34381 11.35839 85.97853 34.69687 -19.85668 -0 0 14.15666 -8.866315 9.573908 4.907759 6.94755 -21.25403 -0.9352039 -92.32021 22.71486 19.77866 0 0 -16.57642 10.93945 14.72869 0.8898872
1.412702 102.9778 13.14317 -1.081197 4.15994 0.1094735 7.675036 -33.11047 7.623522 -0 21.68344 -0 -6.870289 -6.126055 -1.872484 -6.096961 12.22679 -19.18665 -0 8.349056 -0 6.988542 -23.09442 22.53378 -2.053486 -2.148376 4.208313 3.248238 9.390665 -8.26632 1.245824 20.28368 7.126504 3.802715 -26.43311 9.092922 5.782695 -18.0355 11.36527 86.28574 34.41739 -20.47124 -0 0 13.52261 -8.856808 9.704429 5.008979 6.947258 -21.21853 -0.9845346 -92.01655 22.86577 19.17792 0 0 -17.30018 10.40469 14.56321 1.356873
